<?xml version="1.0" standalone="no"?><!DOCTYPE svg PUBLIC "-//W3C//DTD SVG 1.1//EN"
  "http://www.w3.org/Graphics/SVG/1.1/DTD/svg11.dtd">
<svg t="1685008429075" class="icon" viewBox="0 0 1024 1024" version="1.1" xmlns="http://www.w3.org/2000/svg"
     p-id="16121" id="mx_n_1685008429076" width="128" height="128" xmlns:xlink="http://www.w3.org/1999/xlink">
  <path
    d="M928 332.8c0-6.4 0-12.8-6.4-12.8-6.4-12.8-12.8-32-25.6-38.4L646.4 32c-12.8-19.2-38.4-32-64-32H192c-51.2 0-96 44.8-96 96v832c0 51.2 44.8 96 96 96h243.2c19.2 0 32-12.8 32-32S448 960 435.2 960H192c-19.2 0-32-12.8-32-32v-832c0-19.2 12.8-32 32-32h390.4v268.8c0 19.2 12.8 32 32 32h249.6v70.4c0 19.2 12.8 32 32 32s32-12.8 32-32V345.6v-12.8z m-281.6-224l192 192h-192v-192z"
    p-id="16122"></path>
  <path
    d="M896 832h-76.8v-128c32-25.6 51.2-57.6 51.2-96 0-70.4-57.6-128-128-128s-128 57.6-128 128c0 38.4 19.2 76.8 51.2 96v128H576c-19.2 0-32 12.8-32 32v102.4c0 44.8 57.6 57.6 192 57.6 140.8 0 172.8-19.2 185.6-38.4 6.4-6.4 6.4-12.8 6.4-25.6v-102.4c0-12.8-12.8-25.6-32-25.6z m-160-288c38.4 0 64 25.6 64 64s-25.6 64-64 64-64-25.6-64-64 25.6-64 64-64z m-19.2 192h32V832h-32v-96z m147.2 211.2c-12.8 6.4-51.2 12.8-128 12.8s-115.2-6.4-128-12.8V896H857.6v51.2zM236.8 179.2h76.8c19.2 0 32-12.8 32-32s-12.8-32-32-32H236.8c-12.8 0-32 12.8-32 32s19.2 32 32 32zM236.8 480h326.4c19.2 0 32-12.8 32-32s-12.8-32-32-32H236.8c-12.8 0-32 12.8-32 32s19.2 32 32 32zM236.8 332.8h172.8c19.2 0 38.4-19.2 38.4-32s-19.2-32-32-32H236.8c-19.2 0-32 12.8-32 32s19.2 32 32 32z"
    p-id="16123"></path>
</svg>
