<?xml version="1.0" standalone="no"?><!DOCTYPE svg PUBLIC "-//W3C//DTD SVG 1.1//EN"
  "http://www.w3.org/Graphics/SVG/1.1/DTD/svg11.dtd">
<svg t="1685066245565" class="icon" viewBox="0 0 1024 1024" version="1.1" xmlns="http://www.w3.org/2000/svg"
     p-id="10073" id="mx_n_1685066245566" width="128" height="128" xmlns:xlink="http://www.w3.org/1999/xlink">
  <path
    d="M707.545 682.164c6.591-8.054 9.332-18.709 7.72-30.002-1.446-10.118-7.884-19.659-17.687-26.194l-69.526-44.378c-22.062-13.693-46.883-20.931-71.781-20.931h-93.174c-20.439 0-39.631 11.581-49.365 29.643l-54.001-35.998c-8.896-6.67-18.623-9.913-29.74-9.913-8.214 0-17.353 2.214-25.101 6.088-14.918 7.851-25.164 22.37-27.409 38.838-2.286 16.76 3.126 33.542 14.476 44.893l70.971 70.97c20.221 20.97 48.646 32.996 77.985 32.996h115.719l46.295 24.984c6.099 3.049 12.296 4.595 18.419 4.595 11.752 0 23.263-5.614 30.015-14.619l56.184-70.972z m-391.111-87.881c0.646-3.984 3.02-7.312 6.533-9.184 1.545-0.03 2.893-0.238 4.092-0.424 1.083-0.167 2.019-0.312 2.932-0.312 2.766 0 5.428 0.717 7.298 1.963l81.33 54.713c11.489 7.9 25.563 12.082 40.704 12.096 1.437 0.146 22.182 2.218 39.27 2.218 26.642 0 26.642-5.582 26.642-7.416 0-5.472-8.057-9.523-24.631-12.385-12.661-2.186-27.96-3.165-37.506-3.165-8.808 0-16.248-7.44-16.248-16.248s7.44-16.248 16.248-16.248h93.174c17.955 0 35.582 5.037 50.957 14.554l68.11 43.475-54.392 68.706-54.688-29.166H440.173c-19.387 0-37.121-7.45-49.958-21l-70.256-70.995c-2.877-2.876-4.194-7.057-3.525-11.182zM740.543 685.177c-9.037-6.573-21.042-5.189-27.928 3.225l-57.729 71.053c-6.573 9.039-5.188 21.044 3.233 27.936 4.064 3.251 8.122 4.766 12.77 4.766 6.152 0 11.575-2.85 15.214-7.949l57.729-71.053c6.573-9.04 5.188-21.045-3.289-27.978z"
    p-id="10074"></path>
  <path
    d="M815.5 885.444h-607c-39.701 0-72-32.299-72-72v-512c0-39.701 32.299-72 72-72h607c39.701 0 72 32.299 72 72v512c0 39.702-32.299 72-72 72z m-607-608c-13.234 0-24 10.766-24 24v512c0 13.233 10.766 24 24 24h607c13.233 0 24-10.767 24-24v-512c0-13.234-10.767-24-24-24h-607z"
    p-id="10075"></path>
  <path d="M333.849 162.556h48v181.777h-48zM642.151 162.556h48v181.777h-48z" p-id="10076"></path>
  <path d="M160.5 420.932h703v48h-703z" p-id="10077"></path>
</svg>
