<?xml version="1.0" standalone="no"?><!DOCTYPE svg PUBLIC "-//W3C//DTD SVG 1.1//EN"
  "http://www.w3.org/Graphics/SVG/1.1/DTD/svg11.dtd">
<svg t="1685065195767" class="icon" viewBox="0 0 1024 1024" version="1.1" xmlns="http://www.w3.org/2000/svg" p-id="4367"
     id="mx_n_1685065195767" width="128" height="128" xmlns:xlink="http://www.w3.org/1999/xlink">
  <path
    d="M923.744 1020H100.224a96.32 96.32 0 0 1-96.256-96.256V100.224A96.32 96.32 0 0 1 100.224 3.968h303.04a32 32 0 0 1 0 64h-303.04c-17.792 0-32.256 14.464-32.256 32.256v823.52c0 17.792 14.464 32.256 32.256 32.256h823.52c17.792 0 32.256-14.464 32.256-32.256V100.224c0-17.792-14.464-32.256-32.256-32.256h-312.48a32 32 0 0 1 0-64h312.48a96.384 96.384 0 0 1 96.256 96.256v823.52a96.384 96.384 0 0 1-96.256 96.256z"
    fill="" p-id="4368"></path>
  <path
    d="M805.856 884h-432a32 32 0 0 1 0-64h432a32 32 0 0 1 0 64zM249.856 884h-31.712a32 32 0 0 1 0-64h31.712a32 32 0 0 1 0 64zM805.856 736h-432a32 32 0 0 1 0-64h432a32 32 0 0 1 0 64zM249.856 736h-31.712a32 32 0 0 1 0-64h31.712a32 32 0 0 1 0 64zM512 604.576c-138.944 0-252-113.056-252-252S373.056 100.576 512 100.576s252 113.056 252 252c0 138.944-113.056 252-252 252z m0-440c-103.648 0-188 84.352-188 188s84.352 188 188 188 188-84.352 188-188S615.648 164.576 512 164.576z"
    fill="" p-id="4369"></path>
  <path d="M475.744 423.552a32 32 0 0 1-32-32V252.576a32 32 0 0 1 64 0v138.976a32 32 0 0 1-32 32z" fill=""
        p-id="4370"></path>
  <path d="M612 423.552h-136.256a32 32 0 0 1 0-64h136.256a32 32 0 0 1 0 64z" fill="" p-id="4371"></path>
</svg>
